<svg xmlns="http://www.w3.org/2000/svg" width="18" height="19" fill="none" viewBox="0 0 18 19"><path fill="#fff" fill-opacity="0.5" d="M5.836 6.336q1.328-1.328 3.203-1.328t3.164 1.328q1.328 1.29 1.328 3.164t-1.328 3.203q-1.29 1.29-3.164 1.29t-3.203-1.29q-1.29-1.328-1.29-3.203t1.29-3.164m1.133 5.234q.86.86 2.07.86 1.211 0 2.07-.86.86-.86.86-2.07t-.86-2.07a2.82 2.82 0 0 0-2.07-.86q-1.21 0-2.07.86a2.82 2.82 0 0 0-.86 2.07q0 1.21.86 2.07m7.46-7.46a.9.9 0 0 1 .313.702q0 .43-.312.743a.9.9 0 0 1-.703.312q-.43 0-.743-.312a1 1 0 0 1-.312-.742q0-.43.312-.704.313-.312.743-.312.429 0 .703.312m3.321 1.796q.04 1.055.04 3.594t-.04 3.594q-.117 2.382-1.445 3.71-1.29 1.29-3.672 1.368-1.055.078-3.594.078t-3.594-.078q-2.382-.117-3.672-1.406a3.8 3.8 0 0 1-.82-1.094 6.4 6.4 0 0 1-.469-1.211 7 7 0 0 1-.117-1.367Q.29 12.04.29 9.5t.078-3.633q.117-2.343 1.406-3.633Q3.063.906 5.445.79 6.5.75 9.04.75t3.594.04q2.382.116 3.672 1.444 1.328 1.29 1.445 3.672m-1.875 8.75q.117-.312.195-.781.078-.508.117-1.172.04-.703.04-1.133V7.43q0-.43-.04-1.094-.039-.704-.117-1.172a4.2 4.2 0 0 0-.195-.82 2.82 2.82 0 0 0-1.68-1.68 4.2 4.2 0 0 0-.82-.195 11 11 0 0 0-1.172-.117q-.664-.04-1.094-.04H6.97q-.43 0-1.133.04a13 13 0 0 0-1.172.117 4.3 4.3 0 0 0-.781.195 2.82 2.82 0 0 0-1.68 1.68 4.2 4.2 0 0 0-.195.82q-.078.469-.117 1.172Q1.85 7 1.85 7.43v4.687q.04.586.079 1.016a10.4 10.4 0 0 0 .273 1.523q.509 1.21 1.68 1.68.313.117.781.195.509.078 1.172.117.703.04 1.094.04h4.179q.43 0 1.094-.04.704-.039 1.172-.117.507-.078.82-.195 1.211-.508 1.68-1.68"/></svg>4531 18.1719C3.85677 18.0938 2.63281 17.625 1.77344 16.7656C1.4349 16.4531 1.16146 16.0885 0.953125 15.6719C0.744792 15.2552 0.588542 14.8516 0.484375 14.4609C0.40625 14.0703 0.367188 13.6146 0.367188 13.0938C0.315104 12.3906 0.289062 11.1927 0.289062 9.5C0.289062 7.80729 0.315104 6.59635 0.367188 5.86719C0.445312 4.30469 0.914062 3.09375 1.77344 2.23438C2.63281 1.34896 3.85677 0.867188 5.44531 0.789062C6.14844 0.763021 7.34635 0.75 9.03906 0.75C10.7318 0.75 11.9297 0.763021 12.6328 0.789062C14.2214 0.867188 15.4453 1.34896 16.3047 2.23438C17.1901 3.09375 17.6719 4.31771 17.75 5.90625ZM15.875 14.6562C15.9531 14.4479 16.0182 14.1875 16.0703 13.875C16.1224 13.5365 16.1615 13.1458 16.1875 12.7031C16.2135 12.2344 16.2266 11.8568 16.2266 11.5703C16.2266 11.2839 16.2266 10.8802 16.2266 10.3594C16.2266 9.83854 16.2266 9.55208 16.2266 9.5C16.2266 9.42188 16.2266 9.13542 16.2266 8.64062C16.2266 8.11979 16.2266 7.71615 16.2266 7.42969C16.2266 7.14323 16.2135 6.77865 16.1875 6.33594C16.1615 5.86719 16.1224 5.47656 16.0703 5.16406C16.0182 4.82552 15.9531 4.55208 15.875 4.34375C15.5625 3.53646 15.0026 2.97656 14.1953 2.66406C13.987 2.58594 13.7135 2.52083 13.375 2.46875C13.0625 2.41667 12.6719 2.3776 12.2031 2.35156C11.7604 2.32552 11.3958 2.3125 11.1094 2.3125C10.849 2.3125 10.4453 2.3125 9.89844 2.3125C9.3776 2.3125 9.09115 2.3125 9.03906 2.3125C8.98698 2.3125 8.70052 2.3125 8.17969 2.3125C7.65885 2.3125 7.25521 2.3125 6.96875 2.3125C6.68229 2.3125 6.30469 2.32552 5.83594 2.35156C5.39323 2.3776 5.0026 2.41667 4.66406 2.46875C4.35156 2.52083 4.09115 2.58594 3.88281 2.66406C3.07552 2.97656 2.51562 3.53646 2.20312 4.34375C2.125 4.55208 2.0599 4.82552 2.00781 5.16406C1.95573 5.47656 1.91667 5.86719 1.89062 6.33594C1.86458 6.77865 1.85156 7.14323 1.85156 7.42969C1.85156 7.6901 1.85156 8.09375 1.85156 8.64062C1.85156 9.16146 1.85156 9.44792 1.85156 9.5C1.85156 9.60417 1.85156 9.85156 1.85156 10.2422C1.85156 10.6068 1.85156 10.9193 1.85156 11.1797C1.85156 11.4141 1.85156 11.7266 1.85156 12.1172C1.8776 12.5078 1.90365 12.8464 1.92969 13.1328C1.95573 13.3932 1.99479 13.6667 2.04688 13.9531C2.09896 14.2396 2.15104 14.474 2.20312 14.6562C2.54167 15.4635 3.10156 16.0234 3.88281 16.3359C4.09115 16.4141 4.35156 16.4792 4.66406 16.5312C5.0026 16.5833 5.39323 16.6224 5.83594 16.6484C6.30469 16.6745 6.66927 16.6875 6.92969 16.6875C7.21615 16.6875 7.61979 16.6875 8.14062 16.6875C8.6875 16.6875 8.98698 16.6875 9.03906 16.6875C9.11719 16.6875 9.40365 16.6875 9.89844 16.6875C10.4193 16.6875 10.8229 16.6875 11.1094 16.6875C11.3958 16.6875 11.7604 16.6745 12.2031 16.6484C12.6719 16.6224 13.0625 16.5833 13.375 16.5312C13.7135 16.4792 13.987 16.4141 14.1953 16.3359C15.0026 15.9974 15.5625 15.4375 15.875 14.6562Z" fill="white" fill-opacity="0.5"/></svg>