<svg xmlns="http://www.w3.org/2000/svg" width="21" height="21" fill="none" viewBox="0 0 21 21"><path stroke="#FFAC30" d="M11.685 14.47q.113.066.212.128c.108.066.21.13.33.193.171.09.28.125.338.132l.042-.024q.09-.056.24-.206c.194-.195.405-.456.642-.749l.038-.046c.241-.299.51-.627.775-.88.133-.128.28-.251.438-.344a1.14 1.14 0 0 1 .577-.174c.357 0 .67.168.887.304.113.071.222.149.315.214l.004.003c.098.07.175.124.244.167.493.29.993.566 1.5.846q.38.21.766.426l.068.033c.134.065.341.167.53.28.117.07.244.155.355.252a1.02 1.02 0 0 1 .371.853v.015c0 .296-.063.693-.144 1.055a5.7 5.7 0 0 1-.314 1.008c-.187.436-.517.768-.847 1.024a8 8 0 0 1-1.001.631l-.005.003c-.845.458-1.73.743-2.729.743-1.157 0-2.225-.405-3.187-.77q-.251-.095-.493-.184a13 13 0 0 1-2.435-1.156l.262-.426zm0 0-.01-.005m.01.005-.01-.005m0 0C9.32 13.157 7.7 11.537 6.394 9.18m5.283 5.284L6.393 9.18m0 0-.006-.009m.006.01-.006-.01m0 0q-.066-.113-.128-.212a6 6 0 0 1-.193-.33 1.1 1.1 0 0 1-.132-.338l.024-.041c.039-.06.105-.14.207-.241.194-.194.455-.405.748-.642l.047-.038c.298-.241.627-.51.88-.775.128-.133.25-.28.343-.438a1.14 1.14 0 0 0 .174-.577c0-.357-.168-.67-.304-.887-.071-.113-.149-.222-.214-.315l-.003-.004a5 5 0 0 1-.167-.244 63 63 0 0 1-.846-1.499q-.21-.381-.426-.767l-.033-.068a7 7 0 0 0-.28-.53A2.5 2.5 0 0 0 5.832.87a1 1 0 0 0-.408-.298A1.2 1.2 0 0 0 4.964.5c-.296 0-.693.063-1.055.144A5.7 5.7 0 0 0 2.9.958c-.435.188-.768.517-1.024.847a8 8 0 0 0-.631 1.001m5.141 6.366-5.14-6.366m0 0-.002.005m.002-.005-.002.005m0 0C.785 3.656.5 4.54.5 5.54m.744-2.73L.5 5.54m0 0c0 1.156.405 2.224.77 3.186M.5 5.54l.77 3.187m0 0q.095.251.184.493m-.184-.493.184.493m0 0c.304.842.68 1.664 1.156 2.436z"/></svg>46M11.6757 14.4646C9.31993 13.1573 7.69984 11.5372 6.39255 9.18149L6.39265 9.18143M11.6757 14.4646L6.39265 9.18143M6.39265 9.18143L6.38725 9.17217M6.39265 9.18143L6.38725 9.17217M6.38725 9.17217C6.34261 9.09564 6.30018 9.02681 6.25902 8.96001C6.19271 8.85243 6.12967 8.75013 6.06587 8.62951C5.97562 8.45889 5.9412 8.34989 5.93436 8.29249C5.9384 8.2839 5.94566 8.27009 5.95814 8.25063C5.9967 8.19046 6.06317 8.11047 6.16454 8.00957C6.35892 7.81609 6.62013 7.60476 6.91293 7.36787C6.92842 7.35533 6.944 7.34273 6.95966 7.33005C7.25775 7.08878 7.58667 6.82055 7.83995 6.55538C7.96754 6.4218 8.09036 6.27439 8.18346 6.1168C8.27524 5.96147 8.35714 5.76429 8.35714 5.54018C8.35714 5.18345 8.18926 4.87028 8.05287 4.65314C7.9817 4.53982 7.90449 4.43093 7.83871 4.33814L7.83562 4.3338C7.76672 4.2366 7.7123 4.15951 7.66927 4.09C7.37896 3.59717 7.10305 3.0976 6.8233 2.59106C6.68307 2.33716 6.54188 2.08151 6.39742 1.82408C6.38776 1.80461 6.37656 1.78168 6.364 1.75597C6.2989 1.62267 6.19734 1.41473 6.08444 1.22657C6.01414 1.1094 5.92916 0.981882 5.832 0.871215C5.74667 0.774035 5.61072 0.641338 5.42448 0.573124C5.24039 0.498984 5.06455 0.499641 4.97893 0.499962C4.97371 0.499982 4.96882 0.5 4.96429 0.5C4.66828 0.5 4.27124 0.562911 3.90871 0.644437C3.54697 0.725787 3.16661 0.83764 2.90067 0.957779C2.46555 1.14569 2.13315 1.47507 1.87717 1.80525C1.61965 2.13741 1.41201 2.50738 1.24596 2.80629L1.24593 2.80627M6.38725 9.17217L1.24593 2.80627M1.24593 2.80627L1.24352 2.81073M1.24593 2.80627L1.24352 2.81073M1.24352 2.81073C0.785212 3.65573 0.5 4.54095 0.5 5.54018M1.24352 2.81073L0.5 5.54018M0.5 5.54018C0.5 6.69698 0.904876 7.76491 1.26962 8.72697M0.5 5.54018L1.26962 8.72697M1.26962 8.72697C1.3331 8.89441 1.39536 9.05864 1.45406 9.21957M1.26962 8.72697L1.45406 9.21957M1.45406 9.21957C1.75788 10.0618 2.13345 10.8842 2.61032 11.6556L1.45406 9.21957Z" stroke="#FFAC30"/></svg>