<svg xmlns="http://www.w3.org/2000/svg" width="14" height="13" fill="none" viewBox="0 0 14 13"><path fill="#fff" d="M13.282 10.357c0-.062 0-.125-.026-.187-.063-.188-.5-.384-.679-.474-.509-.285-1.027-.562-1.527-.857-.232-.143-.518-.41-.794-.41-.545 0-1.34 1.616-1.822 1.616-.24 0-.553-.224-.768-.349-1.625-.901-2.75-2.026-3.651-3.651-.125-.215-.349-.527-.349-.768 0-.482 1.616-1.277 1.616-1.822 0-.276-.267-.562-.41-.794-.295-.5-.572-1.018-.857-1.527-.09-.179-.286-.616-.474-.679C3.48.43 3.416.43 3.354.43c-.322 0-.947.142-1.241.276-.438.188-.723.688-.947 1.09-.285.526-.455 1.062-.455 1.66 0 .83.34 1.58.616 2.34.196.544.438 1.071.741 1.562.938 1.518 2.768 3.348 4.286 4.286a8.4 8.4 0 0 0 1.562.74c.76.278 1.51.617 2.34.617.598 0 1.133-.17 1.66-.455.402-.224.902-.51 1.09-.947.133-.294.276-.92.276-1.24"/></svg>.1663 1.79466C0.880581 2.32145 0.710938 2.85716 0.710938 3.45537C0.710938 4.28573 1.05022 5.03573 1.32701 5.79466C1.52344 6.3393 1.76451 6.86609 2.06808 7.35716C3.00558 8.87502 4.83594 10.7054 6.35379 11.6429C6.84487 11.9464 7.37165 12.1875 7.91629 12.3839C8.67522 12.6607 9.42522 13 10.2556 13C10.8538 13 11.3895 12.8304 11.9163 12.5447C12.3181 12.3214 12.8181 12.0357 13.0056 11.5982C13.1395 11.3036 13.2824 10.6786 13.2824 10.3572Z" fill="white"/></svg>