<svg xmlns="http://www.w3.org/2000/svg" width="22" height="15" fill="none" viewBox="0 0 22 15"><path fill="#fff" fill-opacity="0.5" d="M21.234 2.344q.117.468.196 1.172.117.702.156 1.406.039.665.039 1.25.04.585.04.976V7.5q0 3.516-.43 5.195-.195.665-.704 1.172a2.7 2.7 0 0 1-1.21.703q-.743.195-2.813.313-2.07.078-3.79.117H11q-6.68 0-8.32-.43-1.524-.429-1.914-1.875-.195-.743-.313-2.03-.078-1.33-.117-2.227V7.5q0-3.476.43-5.156.195-.704.703-1.211A2.7 2.7 0 0 1 2.679.43Q3.423.235 5.493.156 7.562.04 9.282 0H11q6.68 0 8.32.43.704.195 1.211.703t.703 1.21m-12.422 8.36L14.399 7.5 8.813 4.336z"/></svg>3.6589 0.765625 12.6953C0.635417 12.2005 0.53125 11.5234 0.453125 10.6641C0.401042 9.77865 0.361979 9.03646 0.335938 8.4375V7.5C0.335938 5.18229 0.479167 3.46354 0.765625 2.34375C0.895833 1.875 1.13021 1.47135 1.46875 1.13281C1.80729 0.794271 2.21094 0.559896 2.67969 0.429688C3.17448 0.299479 4.11198 0.208333 5.49219 0.15625C6.8724 0.078125 8.13542 0.0260417 9.28125 0H11C15.4531 0 18.2266 0.143229 19.3203 0.429688C19.7891 0.559896 20.1927 0.794271 20.5312 1.13281C20.8698 1.47135 21.1042 1.875 21.2344 2.34375ZM8.8125 10.7031L14.3984 7.5L8.8125 4.33594V10.7031Z" fill="white" fill-opacity="0.5"/></svg>