<svg xmlns="http://www.w3.org/2000/svg" width="77" height="86" fill="none" viewBox="0 0 77 86"><path stroke="#FFAC30" stroke-linecap="round" d="M7.748 30.893v46.5a6 6 0 0 0 6 6h41.5"/><path stroke="#FFAC30" stroke-linecap="round" stroke-linejoin="round" d="m.748 35.994 37-28 37.801 28"/><circle cx="37.2476" cy="50.8926" r="17" stroke="#FFAC30"/><path fill="#FFAC30" fill-rule="evenodd" d="M37.248 62.393c6.35 0 11.5-5.15 11.5-11.5 0-6.352-5.15-11.5-11.5-11.5-6.352 0-11.5 5.148-11.5 11.5 0 6.35 5.148 11.5 11.5 11.5m6.343-15.137a.5.5 0 0 0-.687-.727l-8.127 7.676-3.186-3.01a.5.5 0 0 0-.687.728l3.873 3.657z" clip-rule="evenodd"/><path stroke="#FFAC30" d="m52.112 60.1 15.875 15.875a4 4 0 0 1-5.657 5.657L46.455 65.756z"/><path stroke="#FFAC30" stroke-linecap="round" d="M67.248 29.893v38"/></svg>51.0061 31.0737 51.0152 30.8841 51.2159C30.6944 51.4167 30.7035 51.7331 30.9042 51.9228L34.777 55.5803L43.5909 47.2561Z" fill="#FFAC30"/><path d="M52.1116 60.0997L67.9872 75.9753C69.5493 77.5374 69.5493 80.0701 67.9872 81.6322C66.4251 83.1943 63.8924 83.1943 62.3303 81.6322L46.4547 65.7565L52.1116 60.0997Z" stroke="#FFAC30"/><line x1="67.2476" y1="29.8926" x2="67.2476" y2="67.8926" stroke="#FFAC30" stroke-linecap="round"/></svg>