<svg xmlns="http://www.w3.org/2000/svg" width="80" height="79" fill="none" viewBox="0 0 80 79"><path stroke="#FFAC30" d="M9.5 51.508C4.34 51.508.241 55.849.527 61c.265 4.769 4.21 8.507 8.987 8.507H47.5"/><path stroke="#FFAC30" d="M.5 60.508v-46.5a9 9 0 0 1 9-9v47m-.5-34.5h37m15 0h11m-.5 28.5v-28M36.17 42.18l31.167-31.166a5.192 5.192 0 1 0-7.342-7.342L28.826 34.837"/><path fill="#FFAC30" stroke="#FFAC30" d="m28.696 35.41 6.892 6.893-10.137 3.245z"/><path fill="#FFAC30" d="M67.216 3.679a5.19 5.19 0 0 1 0 7.342l-2.874 2.874L57 6.553l2.874-2.874a5.19 5.19 0 0 1 7.342 0"/><path stroke="#FFAC30" d="m55.354 8.654 7 7m-33 19 7 7"/><path stroke="#FFAC30" stroke-linecap="round" d="M20.5 46.508h32m3.5 14.5 23-23v40H39l13-13"/><path stroke="#FFAC30" d="M59.207 69.508 69.5 59.215v10.293z"/><path stroke="#FFAC30" stroke-linecap="round" d="M74.5 51.508h4m-4 7h4m-4 5h4m-4 6h4"/></svg>.99374 67.216 11.0213L64.3424 13.8949L57 6.55256L59.8736 3.67891C61.9012 1.65137 65.1885 1.65137 67.216 3.67891Z" fill="#FFAC30"/><line x1="55.3536" y1="8.65426" x2="62.3536" y2="15.6543" stroke="#FFAC30"/><line x1="29.3536" y1="34.6543" x2="36.3536" y2="41.6543" stroke="#FFAC30"/><line x1="20.5" y1="46.5078" x2="52.5" y2="46.5078" stroke="#FFAC30" stroke-linecap="round"/><path d="M56 61.0078L79 38.0078V78.0078H39L52 65.0078" stroke="#FFAC30" stroke-linecap="round"/><path d="M59.2071 69.5078L69.5 59.2149V69.5078H59.2071Z" stroke="#FFAC30"/><line x1="74.5" y1="51.5078" x2="78.5" y2="51.5078" stroke="#FFAC30" stroke-linecap="round"/><line x1="74.5" y1="58.5078" x2="78.5" y2="58.5078" stroke="#FFAC30" stroke-linecap="round"/><line x1="74.5" y1="63.5078" x2="78.5" y2="63.5078" stroke="#FFAC30" stroke-linecap="round"/><line x1="74.5" y1="69.5078" x2="78.5" y2="69.5078" stroke="#FFAC30" stroke-linecap="round"/></svg>