<svg xmlns="http://www.w3.org/2000/svg" width="101" height="101" fill="none" viewBox="0 0 101 101"><path stroke="#FFAC30" d="M85.932 71.79 21.213 7.071c-3.905-3.905-10.237-3.905-14.142 0s-3.905 10.237 0 14.142l64.72 64.72"/><path stroke="#FFAC30" d="m85.823 71.632 7.24 21.43-21.43-7.24"/><path fill="#FFAC30" d="M7.071 7.071c3.905-3.905 10.237-3.905 14.142 0l5.535 5.535-14.142 14.142-5.535-5.535c-3.905-3.905-3.905-10.237 0-14.142"/><path stroke="#FFAC30" d="m16.646 30.646 14-14"/><path stroke="#FFAC30" stroke-linecap="round" d="M24.707 24 30 29.293M34.707 34 79 78.293"/><path stroke="#FFAC30" d="M48.5 34.676 77.762 5.413a6 6 0 0 1 8.486 0l5.656 5.657a6 6 0 0 1 0 8.486L62.96 48.5M48.5 62.96 19.385 92.075a6 6 0 0 1-8.486 0l-5.656-5.657a6 6 0 0 1 0-8.485L34.676 48.5"/><path stroke="#FFAC30" stroke-linecap="round" stroke-linejoin="round" d="m72.435 37.456-7.778-7.778m24.749-9.193-7.779-7.778M78.092 31.8l-2.829-2.83m-8.485 14.143-2.828-2.829m19.799-14.142-2.829-2.828M37.435 73.192l-7.778-7.778M19.778 89.93 12 82.15m31.092-14.614-2.829-2.829M25.435 84.273l-2.828-2.829m9.171-2.594-2.828-2.83"/></svg>ine x1="72.435" y1="37.4558" x2="64.6568" y2="29.6776" stroke="#FFAC30" stroke-linecap="round" stroke-linejoin="round"/><line x1="89.4057" y1="20.4854" x2="81.6275" y2="12.7072" stroke="#FFAC30" stroke-linecap="round" stroke-linejoin="round"/><line x1="78.092" y1="31.7991" x2="75.2635" y2="28.9706" stroke="#FFAC30" stroke-linecap="round" stroke-linejoin="round"/><line x1="66.7782" y1="43.1128" x2="63.9498" y2="40.2844" stroke="#FFAC30" stroke-linecap="round" stroke-linejoin="round"/><line x1="83.7487" y1="26.1421" x2="80.9203" y2="23.3137" stroke="#FFAC30" stroke-linecap="round" stroke-linejoin="round"/><line x1="37.4349" y1="73.1924" x2="29.6567" y2="65.4142" stroke="#FFAC30" stroke-linecap="round" stroke-linejoin="round"/><line x1="19.7781" y1="89.9292" x2="11.9999" y2="82.151" stroke="#FFAC30" stroke-linecap="round" stroke-linejoin="round"/><line x1="43.0918" y1="67.5356" x2="40.2634" y2="64.7072" stroke="#FFAC30" stroke-linecap="round" stroke-linejoin="round"/><line x1="25.4351" y1="84.2725" x2="22.6067" y2="81.444" stroke="#FFAC30" stroke-linecap="round" stroke-linejoin="round"/><line x1="31.7781" y1="78.8494" x2="28.9497" y2="76.0209" stroke="#FFAC30" stroke-linecap="round" stroke-linejoin="round"/></svg>