<svg xmlns="http://www.w3.org/2000/svg" width="76" height="87" fill="none" viewBox="0 0 76 87"><path stroke="#FFAC30" d="M9.248 27h-2.5a6 6 0 0 1-6-6V7a6 6 0 0 1 6-6h54a6 6 0 0 1 6 6v14a6 6 0 0 1-6 6h-26.5"/><rect width="37" height="18" x="46.2476" y="49.5" stroke="#FFAC30" rx="5.5" transform="rotate(90 46.248 49.5)"/><path stroke="#FFAC30" d="M9.748 1.5V43a7 7 0 1 0 14 0V23.5"/><path stroke="#FFAC30" d="M33.748 1.5V34a5 5 0 1 1-10 0V20.97m42.5-6.97h8.5v14.5c0 4.5-2.5 5.5-7.5 7s-20.5 6-24 7-6 2.5-6 7"/><path fill="#FFAC30" d="M27.748 57h19v8h-19z"/></svg>.7476 36.7614 31.509 39 28.7476 39V39C25.9861 39 23.7476 36.7614 23.7476 34V20.9691" stroke="#FFAC30"/><path d="M66.2476 14H74.7476C74.7476 17.3333 74.7476 24.9 74.7476 28.5C74.7476 33 72.2476 34 67.2476 35.5C62.2476 37 46.7476 41.5 43.2476 42.5C39.7476 43.5 37.2476 45 37.2476 49.5" stroke="#FFAC30"/><rect x="27.7476" y="57" width="19" height="8" fill="#FFAC30"/></svg>