<svg xmlns="http://www.w3.org/2000/svg" width="77" height="94" fill="none" viewBox="0 0 77 94"><path stroke="#FFAC30" stroke-linejoin="round" d="M37 1H7a6 6 0 0 0-6 6v58a6 6 0 0 0 6 6h38a6 6 0 0 0 6-6V23"/><path stroke="#FFAC30" stroke-linejoin="round" d="M26 71v16a6 6 0 0 0 6 6h38a6 6 0 0 0 6-6V46"/><path fill="#FFAC30" stroke="#FFAC30" stroke-linejoin="round" d="M37 15h15L37 1zm24 22h15L61 23z"/><path stroke="#FFAC30" d="M61 23.5H51m-10 36H11m30-8H11m30-9H11"/></svg>FAC30" stroke="#FFAC30" stroke-linejoin="round"/><line x1="61" y1="23.5" x2="51" y2="23.5" stroke="#FFAC30"/><line x1="41" y1="59.5" x2="11" y2="59.5" stroke="#FFAC30"/><line x1="41" y1="51.5" x2="11" y2="51.5" stroke="#FFAC30"/><line x1="41" y1="42.5" x2="11" y2="42.5" stroke="#FFAC30"/></svg>