<svg xmlns="http://www.w3.org/2000/svg" width="94" height="92" fill="none" viewBox="0 0 94 92"><path stroke="#FFAC30" stroke-linecap="round" d="m55.027 39 23.067 17.72a5.75 5.75 0 0 1 1.18 7.898v0a5.75 5.75 0 0 1-8.03 1.336l-6.61-4.733"/><path stroke="#FFAC30" d="M55.027 39c-4.5-3.5-8.5-1-14.5-1-4.5 0-8.5-2.5-9-6.5-.375-3 11.5-4 16.5-4.5s9 2 12.5 3c2.8.8 8-1.333 10.5-2.5"/><path stroke="#FFAC30" stroke-linecap="round" d="m66.393 62.435 4.554 3.36a4.946 4.946 0 0 1 1.09 6.851v0a4.946 4.946 0 0 1-6.844 1.194l-6.288-4.357"/><path stroke="#FFAC30" stroke-linecap="round" d="m59.027 69.5 5.61 4.052a4.11 4.11 0 0 1 .881 5.794v0a4.11 4.11 0 0 1-5.786.796L53.027 75"/><path stroke="#FFAC30" stroke-linecap="round" d="m53.027 75 4.604 3.454a4.246 4.246 0 0 1 .85 5.942v0a4.245 4.245 0 0 1-5.815.943l-5.14-3.56"/><rect width="19.6318" height="9.93922" x="11.8654" y="60.6106" stroke="#FFAC30" rx="4.96961" transform="rotate(-39.352 11.865 60.61)"/><rect width="19.0117" height="10.0037" x="24.839" y="75.8645" stroke="#FFAC30" rx="5.00185" transform="rotate(-39.352 24.839 75.865)"/><rect width="15.3281" height="9.42482" x="31.1342" y="83.7659" stroke="#FFAC30" rx="4.71241" transform="rotate(-39.352 31.134 83.766)"/><rect width="24.6156" height="10.0037" x="18.2304" y="68.3635" stroke="#FFAC30" rx="5.00185" transform="rotate(-39.352 18.23 68.364)"/><rect width="38.5581" height="6.64481" y="53.4248" fill="#FFAC30" rx="3.3224" transform="rotate(-60 0 53.425)"/><rect width="38.5581" height="7.6328" fill="#FFAC30" rx="3.8164" transform="scale(-1 1)rotate(-60 -.869 107.366)"/><path stroke="#FFAC30" d="M8.027 52c2 0 4.5.5 8 5m68.5-5c-1.75 0-3.938.4-7 4M21.67 27.521l10 3"/><path stroke="#FFAC30" stroke-linecap="round" d="M46.027 11.5V.5m-13.19 16.347L26.373 6.69m33.844 10.157L66.68 6.69"/></svg>81" height="7.6328" rx="3.8164" transform="matrix(-0.5 -0.866025 -0.866025 0.5 93.416 52.9307)" fill="#FFAC30"/><path d="M8.02673 52C10.0267 52 12.5267 52.5 16.0267 57" stroke="#FFAC30"/><path d="M84.5266 52C82.7766 52 80.5891 52.4 77.5266 56" stroke="#FFAC30"/><line x1="21.6704" y1="27.5211" x2="31.6704" y2="30.5211" stroke="#FFAC30"/><line x1="46.0267" y1="11.5" x2="46.0267" y2="0.5" stroke="#FFAC30" stroke-linecap="round"/><line x1="32.8365" y1="16.8466" x2="26.3733" y2="6.69027" stroke="#FFAC30" stroke-linecap="round"/><line x1="0.5" y1="-0.5" x2="12.5384" y2="-0.5" transform="matrix(0.536875 -0.843661 -0.843661 -0.536875 59.5266 17)" stroke="#FFAC30" stroke-linecap="round"/></svg>